<?xml version="1.0" encoding="UTF-8"?> <svg xmlns="http://www.w3.org/2000/svg" xmlns:xlink="http://www.w3.org/1999/xlink" width="1200" zoomAndPan="magnify" viewBox="0 0 900 599.999999" height="800" preserveAspectRatio="xMidYMid meet" version="1.0"><defs><clipPath id="4a5105f741"><path d="M 177.738281 176 L 651 176 L 651 571.992188 L 177.738281 571.992188 Z M 177.738281 176 " clip-rule="nonzero"></path></clipPath><clipPath id="d84990f519"><path d="M 416 27.738281 L 721.988281 27.738281 L 721.988281 373 L 416 373 Z M 416 27.738281 " clip-rule="nonzero"></path></clipPath></defs><path fill="#3e66ff" d="M 351.003906 347.722656 C 351.003906 334.804688 340.535156 324.335938 327.621094 324.335938 C 314.703125 324.335938 304.234375 334.804688 304.234375 347.722656 C 304.234375 360.636719 314.703125 371.105469 327.621094 371.105469 C 340.535156 371.105469 351.003906 360.636719 351.003906 347.722656 " fill-opacity="1" fill-rule="nonzero"></path><path fill="#3e66ff" d="M 436.042969 347.722656 C 436.042969 334.804688 425.574219 324.335938 412.660156 324.335938 C 399.742188 324.335938 389.273438 334.804688 389.273438 347.722656 C 389.273438 360.636719 399.742188 371.105469 412.660156 371.105469 C 425.574219 371.105469 436.042969 360.636719 436.042969 347.722656 " fill-opacity="1" fill-rule="nonzero"></path><path fill="#3e66ff" d="M 521.082031 347.722656 C 521.082031 334.804688 510.613281 324.335938 497.699219 324.335938 C 484.78125 324.335938 474.3125 334.804688 474.3125 347.722656 C 474.3125 360.636719 484.78125 371.105469 497.699219 371.105469 C 510.613281 371.105469 521.082031 360.636719 521.082031 347.722656 " fill-opacity="1" fill-rule="nonzero"></path><g clip-path="url(#4a5105f741)"><path stroke-linecap="round" transform="matrix(1.06299, 0, 0, -1.06299, 431.261286, 190.398499)" fill="none" stroke-linejoin="round" d="M 0.00040706 0.0000579275 L -152.499113 0.0000579275 C -194.472402 0.0000579275 -228.500825 -34.024691 -228.500825 -76.001655 L -228.500825 -215.999587 C -228.500825 -257.972876 -194.472402 -292.0013 -152.499113 -292.0013 L -8.499349 -292.0013 L -8.499349 -348.001208 L 47.500559 -292.0013 L 117.501362 -292.0013 C 159.474651 -292.0013 193.4994 -257.972876 193.4994 -215.999587 L 193.4994 -125.500884 " stroke="#3e66ff" stroke-width="26" stroke-opacity="1" stroke-miterlimit="10"></path></g><g clip-path="url(#d84990f519)"><path stroke-linecap="round" transform="matrix(1.06299, 0, 0, -1.06299, 430.729782, 77.32824)" fill="none" stroke-linejoin="round" d="M 0.000645987 0.000108092 L 0.000645987 -82.259748 C 0.000645987 -165.368477 53.780989 -239.033032 131.998592 -264.874055 C 210.216194 -239.033032 264.000213 -165.368477 264.000213 -82.259748 L 264.000213 0.000108092 C 218.175759 4.299596 173.354518 16.393283 131.998592 35.667482 C 90.642665 16.393283 45.8251 4.299596 0.000645987 0.000108092 Z M 0.000645987 0.000108092 " stroke="#3e66ff" stroke-width="26" stroke-opacity="1" stroke-miterlimit="10"></path></g><path stroke-linecap="round" transform="matrix(1.06299, 0, 0, -1.06299, 606.350591, 158.364241)" fill="none" stroke-linejoin="round" d="M 0.000914327 0.000903106 L 0.000914327 11.069328 C 0.000914327 29.413808 -14.870903 44.285626 -33.215384 44.285626 C -51.55619 44.285626 -66.428007 29.413808 -66.428007 11.069328 L -66.428007 0.000903106 " stroke="#3e66ff" stroke-width="26" stroke-opacity="1" stroke-miterlimit="10"></path><path fill="#3e66ff" d="M 582.871094 218.96875 L 582.871094 240.078125 L 559.488281 240.078125 L 559.488281 218.96875 C 556.21875 215.867188 554.171875 211.496094 554.171875 206.636719 C 554.171875 197.242188 561.785156 189.628906 571.179688 189.628906 C 580.570312 189.628906 588.1875 197.246094 588.1875 206.636719 C 588.1875 211.496094 586.140625 215.867188 582.871094 218.96875 M 618.121094 158.363281 L 523.96875 158.363281 C 513.570312 158.363281 505.140625 166.792969 505.140625 177.195312 L 505.140625 252.515625 C 505.140625 262.914062 513.570312 271.34375 523.96875 271.34375 L 618.121094 271.34375 C 628.519531 271.34375 636.949219 262.914062 636.949219 252.515625 L 636.949219 177.195312 C 636.949219 166.792969 628.519531 158.363281 618.121094 158.363281 " fill-opacity="1" fill-rule="nonzero"></path></svg> 